<svg width="110" height="121" viewBox="0 0 110 121" fill="none" xmlns="http://www.w3.org/2000/svg">
<path d="M55 0C24.6272 0 0 27.7922 0 62.0395C0 89.4535 15.7634 112.681 37.6161 120.892C37.9226 120.965 38.2355 121.001 38.5491 121C40.5871 121 41.3728 119.352 41.3728 117.921C41.3728 116.435 41.3237 112.546 41.2991 107.36C39.4798 107.83 37.6186 108.074 35.75 108.09C25.1674 108.09 22.7612 99.0417 22.7612 99.0417C20.2567 91.8843 16.6473 89.9667 16.6473 89.9667C11.8594 86.2665 16.6228 86.1584 16.9911 86.1584H17.0156C22.5402 86.6986 25.4375 92.5866 25.4375 92.5866C28.1875 97.8803 31.8705 99.3658 35.1607 99.3658C37.3362 99.318 39.4781 98.7657 41.4464 97.7453C41.9375 93.748 43.3616 91.0201 44.933 89.4535C32.7299 87.887 19.8884 82.5663 19.8884 58.7984C19.8884 52.0192 22.0246 46.4823 25.5357 42.1609C24.971 40.5944 23.0804 34.2743 26.0759 25.7395C26.4777 25.6337 26.8907 25.5883 27.3036 25.6045C29.2924 25.6045 33.7857 26.4417 41.2009 32.1136C50.2109 29.3406 59.74 29.3406 68.75 32.1136C76.1652 26.4417 80.6585 25.6045 82.6473 25.6045C83.0602 25.5883 83.4732 25.6337 83.875 25.7395C86.8705 34.2743 84.9799 40.5944 84.4152 42.1609C87.9263 46.5094 90.0625 52.0462 90.0625 58.7984C90.0625 82.6203 77.1964 87.86 64.9442 89.3995C66.9085 91.3172 68.6763 95.0984 68.6763 100.878C68.6763 109.17 68.6027 115.868 68.6027 117.894C68.6027 119.352 69.3638 121 71.4018 121C71.7317 121.002 72.0608 120.965 72.3839 120.892C94.2612 112.681 110 89.4265 110 62.0395C110 27.7922 85.3728 0 55 0Z" fill="#5149E6"/>
</svg>
